<svg xmlns="http://www.w3.org/2000/svg" xmlns:xlink="http://www.w3.org/1999/xlink" contentStyleType="text/css" data-diagram-type="ACTIVITY" height="1536px" preserveAspectRatio="none" style="width:1330px;height:1536px;background:#FFFFFF;" version="1.1" viewBox="0 0 1330 1536" width="1330px" zoomAndPan="magnify"><defs/><g><rect fill="none" height="20.9531" style="stroke:none;stroke-width:1;" width="1297.3647" x="15" y="12.7451"/><ellipse cx="388.0134" cy="48.6982" fill="#222222" rx="10" ry="10" style="stroke:#222222;stroke-width:1;"/><rect fill="#F1F1F1" height="33.9688" rx="12.5" ry="12.5" style="stroke:#181818;stroke-width:0.5;" width="107.0234" x="334.5017" y="78.6982"/><text fill="#000000" font-family="sans-serif" font-size="12" lengthAdjust="spacing" textLength="87.0234" x="344.5017" y="99.8369">Enters System</text><polygon fill="#F1F1F1" points="351.9519,132.667,424.075,132.667,436.075,144.667,424.075,156.667,351.9519,156.667,339.9519,144.667,351.9519,132.667" style="stroke:#181818;stroke-width:0.5;"/><text fill="#000000" font-family="sans-serif" font-size="11" lengthAdjust="spacing" textLength="72.123" x="351.9519" y="148.4751">New Patient?</text><text fill="#000000" font-family="sans-serif" font-size="11" lengthAdjust="spacing" textLength="27.5913" x="312.3606" y="142.0728">[yes]</text><text fill="#000000" font-family="sans-serif" font-size="11" lengthAdjust="spacing" textLength="22.2847" x="436.075" y="142.0728">[no]</text><rect fill="#F1F1F1" height="33.9688" rx="12.5" ry="12.5" style="stroke:#181818;stroke-width:0.5;" width="148.3027" x="126.7871" y="166.667"/><text fill="#000000" font-family="sans-serif" font-size="12" lengthAdjust="spacing" textLength="128.3027" x="136.7871" y="187.8057">Fill Registration Form</text><polygon fill="#F1F1F1" points="149.1772,220.6357,252.6997,220.6357,264.6997,232.6357,252.6997,244.6357,149.1772,244.6357,137.1772,232.6357,149.1772,220.6357" style="stroke:#181818;stroke-width:0.5;"/><text fill="#000000" font-family="sans-serif" font-size="11" lengthAdjust="spacing" textLength="103.5225" x="149.1772" y="236.4438">Registration Valid?</text><text fill="#000000" font-family="sans-serif" font-size="11" lengthAdjust="spacing" textLength="27.5913" x="109.5859" y="230.0415">[yes]</text><text fill="#000000" font-family="sans-serif" font-size="11" lengthAdjust="spacing" textLength="22.2847" x="264.6997" y="230.0415">[no]</text><rect fill="#F1F1F1" height="33.9688" rx="12.5" ry="12.5" style="stroke:#181818;stroke-width:0.5;" width="168.3887" x="21" y="254.6357"/><text fill="#000000" font-family="sans-serif" font-size="12" lengthAdjust="spacing" textLength="148.3887" x="31" y="275.7744">-&gt;[Registration OK] next</text><rect fill="#F1F1F1" height="33.9688" rx="12.5" ry="12.5" style="stroke:#181818;stroke-width:0.5;" width="173.6738" x="209.8457" y="254.6357"/><text fill="#000000" font-family="sans-serif" font-size="12" lengthAdjust="spacing" textLength="153.6738" x="219.8457" y="275.7744">Show "Registration Error"</text><rect fill="#F1F1F1" height="33.9688" rx="12.5" ry="12.5" style="stroke:#181818;stroke-width:0.5;" width="174.5879" x="209.3887" y="308.6045"/><text fill="#000000" font-family="sans-serif" font-size="12" lengthAdjust="spacing" textLength="154.5879" x="219.3887" y="329.7432">-&gt; :Fill Registration Form;</text><polygon fill="#F1F1F1" points="200.9385,348.5732,212.9385,360.5732,200.9385,372.5732,188.9385,360.5732,200.9385,348.5732" style="stroke:#181818;stroke-width:0.5;"/><rect fill="#F1F1F1" height="33.9688" rx="12.5" ry="12.5" style="stroke:#181818;stroke-width:0.5;" width="153.9512" x="498.1128" y="166.667"/><text fill="#000000" font-family="sans-serif" font-size="12" lengthAdjust="spacing" textLength="133.9512" x="508.1128" y="187.8057">Login with Credentials</text><polygon fill="#F1F1F1" points="533.3469,220.6357,616.8298,220.6357,628.8298,232.6357,616.8298,244.6357,533.3469,244.6357,521.3469,232.6357,533.3469,220.6357" style="stroke:#181818;stroke-width:0.5;"/><text fill="#000000" font-family="sans-serif" font-size="11" lengthAdjust="spacing" textLength="83.4829" x="533.3469" y="236.4438">Login Success?</text><text fill="#000000" font-family="sans-serif" font-size="11" lengthAdjust="spacing" textLength="27.5913" x="493.7556" y="230.0415">[yes]</text><text fill="#000000" font-family="sans-serif" font-size="11" lengthAdjust="spacing" textLength="22.2847" x="628.8298" y="230.0415">[no]</text><rect fill="#F1F1F1" height="33.9688" rx="12.5" ry="12.5" style="stroke:#181818;stroke-width:0.5;" width="128.0703" x="423.9766" y="254.6357"/><text fill="#000000" font-family="sans-serif" font-size="12" lengthAdjust="spacing" textLength="108.0703" x="433.9766" y="275.7744">-&gt;[Login OK] next</text><rect fill="#F1F1F1" height="33.9688" rx="12.5" ry="12.5" style="stroke:#181818;stroke-width:0.5;" width="179.2109" x="572.5596" y="254.6357"/><text fill="#000000" font-family="sans-serif" font-size="12" lengthAdjust="spacing" textLength="159.2109" x="582.5596" y="275.7744">Show "Invalid Credentials"</text><rect fill="#F1F1F1" height="33.9688" rx="12.5" ry="12.5" style="stroke:#181818;stroke-width:0.5;" width="180.2363" x="572.0469" y="308.6045"/><text fill="#000000" font-family="sans-serif" font-size="12" lengthAdjust="spacing" textLength="160.2363" x="582.0469" y="329.7432">-&gt; :Login with Credentials;</text><polygon fill="#F1F1F1" points="575.0884,348.5732,587.0884,360.5732,575.0884,372.5732,563.0884,360.5732,575.0884,348.5732" style="stroke:#181818;stroke-width:0.5;"/><polygon fill="#F1F1F1" points="388.0134,378.5732,400.0134,390.5732,388.0134,402.5732,376.0134,390.5732,388.0134,378.5732" style="stroke:#181818;stroke-width:0.5;"/><rect fill="#F1F1F1" height="47.9375" rx="12.5" ry="12.5" style="stroke:#181818;stroke-width:0.5;" width="171.8926" x="302.0671" y="636.4795"/><text fill="#000000" font-family="sans-serif" font-size="12" lengthAdjust="spacing" textLength="151.8926" x="312.0671" y="657.6182">Select Appointment Type</text><text fill="#000000" font-family="sans-serif" font-size="12" lengthAdjust="spacing" textLength="100.998" x="312.0671" y="671.5869">(Regular/Urgent)</text><line style="stroke:#000000;stroke-width:1.5;" x1="15" x2="15" y1="12.7451" y2="1524.4756"/><rect fill="#F1F1F1" height="33.9688" rx="12.5" ry="12.5" style="stroke:#181818;stroke-width:0.5;" width="121.5078" x="929.4282" y="422.5732"/><text fill="#000000" font-family="sans-serif" font-size="12" lengthAdjust="spacing" textLength="101.5078" x="939.4282" y="443.7119">Show Dashboard</text><rect fill="#555555" height="6" rx="2.5" ry="2.5" style="stroke:#555555;stroke-width:1;" width="318.9668" x="830.6987" y="476.542"/><rect fill="#F1F1F1" height="33.9688" rx="12.5" ry="12.5" style="stroke:#181818;stroke-width:0.5;" width="117.875" x="844.6987" y="502.542"/><text fill="#000000" font-family="sans-serif" font-size="12" lengthAdjust="spacing" textLength="97.875" x="854.6987" y="523.6807">Verify Insurance</text><rect fill="#F1F1F1" height="33.9688" rx="12.5" ry="12.5" style="stroke:#181818;stroke-width:0.5;" width="145.0918" x="990.5737" y="502.542"/><text fill="#000000" font-family="sans-serif" font-size="12" lengthAdjust="spacing" textLength="125.0918" x="1000.5737" y="523.6807">Fetch Available Slots</text><rect fill="#555555" height="6" rx="2.5" ry="2.5" style="stroke:#555555;stroke-width:1;" width="318.9668" x="830.6987" y="556.5107"/><rect fill="#F1F1F1" height="33.9688" rx="12.5" ry="12.5" style="stroke:#181818;stroke-width:0.5;" width="195.9746" x="892.1948" y="582.5107"/><text fill="#000000" font-family="sans-serif" font-size="12" lengthAdjust="spacing" textLength="175.9746" x="902.1948" y="603.6494">Display Appointment Options</text><polygon fill="#F1F1F1" points="968.4587,704.417,1011.9055,704.417,1023.9055,716.417,1011.9055,728.417,968.4587,728.417,956.4587,716.417,968.4587,704.417" style="stroke:#181818;stroke-width:0.5;"/><text fill="#000000" font-family="sans-serif" font-size="11" lengthAdjust="spacing" textLength="43.4468" x="968.4587" y="720.2251">Urgent?</text><text fill="#000000" font-family="sans-serif" font-size="11" lengthAdjust="spacing" textLength="27.5913" x="928.8674" y="713.8228">[yes]</text><text fill="#000000" font-family="sans-serif" font-size="11" lengthAdjust="spacing" textLength="22.2847" x="1023.9055" y="713.8228">[no]</text><rect fill="#F1F1F1" height="33.9688" rx="12.5" ry="12.5" style="stroke:#181818;stroke-width:0.5;" width="186.4004" x="762.2832" y="738.417"/><text fill="#000000" font-family="sans-serif" font-size="12" lengthAdjust="spacing" textLength="166.4004" x="772.2832" y="759.5557">Allocate Next-Available Slot</text><rect fill="#F1F1F1" height="33.9688" rx="12.5" ry="12.5" style="stroke:#181818;stroke-width:0.5;" width="190.5957" x="1029.583" y="738.417"/><text fill="#000000" font-family="sans-serif" font-size="12" lengthAdjust="spacing" textLength="170.5957" x="1039.583" y="759.5557">Select Department &amp; Doctor</text><rect fill="#F1F1F1" height="33.9688" rx="12.5" ry="12.5" style="stroke:#181818;stroke-width:0.5;" width="163.0508" x="1043.3555" y="792.3857"/><text fill="#000000" font-family="sans-serif" font-size="12" lengthAdjust="spacing" textLength="143.0508" x="1053.3555" y="813.5244">Select Date &amp; Time Slot</text><polygon fill="#F1F1F1" points="1084.4553,846.3545,1165.3064,846.3545,1177.3064,858.3545,1165.3064,870.3545,1084.4553,870.3545,1072.4553,858.3545,1084.4553,846.3545" style="stroke:#181818;stroke-width:0.5;"/><text fill="#000000" font-family="sans-serif" font-size="11" lengthAdjust="spacing" textLength="80.8511" x="1084.4553" y="862.1626">Slot Available?</text><text fill="#000000" font-family="sans-serif" font-size="11" lengthAdjust="spacing" textLength="27.5913" x="1044.864" y="855.7603">[yes]</text><text fill="#000000" font-family="sans-serif" font-size="11" lengthAdjust="spacing" textLength="22.2847" x="1177.3064" y="855.7603">[no]</text><rect fill="#F1F1F1" height="33.9688" rx="12.5" ry="12.5" style="stroke:#181818;stroke-width:0.5;" width="118.4844" x="978.6836" y="880.3545"/><text fill="#000000" font-family="sans-serif" font-size="12" lengthAdjust="spacing" textLength="98.4844" x="988.6836" y="901.4932">-&gt;[Slot OK] next</text><rect fill="#F1F1F1" height="33.9688" rx="12.5" ry="12.5" style="stroke:#181818;stroke-width:0.5;" width="175.4492" x="1124.1113" y="880.3545"/><text fill="#000000" font-family="sans-serif" font-size="12" lengthAdjust="spacing" textLength="155.4492" x="1134.1113" y="901.4932">Show "No Slots Available"</text><rect fill="#F1F1F1" height="33.9688" rx="12.5" ry="12.5" style="stroke:#181818;stroke-width:0.5;" width="189.3359" x="1117.168" y="934.3232"/><text fill="#000000" font-family="sans-serif" font-size="12" lengthAdjust="spacing" textLength="169.3359" x="1127.168" y="955.4619">-&gt; :Select Date &amp; Time Slot;</text><polygon fill="#F1F1F1" points="1124.8809,974.292,1136.8809,986.292,1124.8809,998.292,1112.8809,986.292,1124.8809,974.292" style="stroke:#181818;stroke-width:0.5;"/><polygon fill="#F1F1F1" points="990.1821,1004.292,1002.1821,1016.292,990.1821,1028.292,978.1821,1016.292,990.1821,1004.292" style="stroke:#181818;stroke-width:0.5;"/><rect fill="#F1F1F1" height="47.9375" rx="12.5" ry="12.5" style="stroke:#181818;stroke-width:0.5;" width="156.4355" x="911.9644" y="1048.292"/><text fill="#000000" font-family="sans-serif" font-size="12" lengthAdjust="spacing" textLength="124.9805" x="921.9644" y="1069.4307">Appointment Review</text><text fill="#000000" font-family="sans-serif" font-size="12" lengthAdjust="spacing" textLength="136.4355" x="921.9644" y="1083.3994">Details &amp; Confirmation</text><rect fill="#F1F1F1" height="33.9688" rx="12.5" ry="12.5" style="stroke:#181818;stroke-width:0.5;" width="122.8848" x="928.7397" y="1164.6318"/><text fill="#000000" font-family="sans-serif" font-size="12" lengthAdjust="spacing" textLength="102.8848" x="938.7397" y="1185.7705">Process Payment</text><polygon fill="#F1F1F1" points="939.0493,1218.6006,1041.3149,1218.6006,1053.3149,1230.6006,1041.3149,1242.6006,939.0493,1242.6006,927.0493,1230.6006,939.0493,1218.6006" style="stroke:#181818;stroke-width:0.5;"/><text fill="#000000" font-family="sans-serif" font-size="11" lengthAdjust="spacing" textLength="102.2656" x="939.0493" y="1234.4087">Payment Success?</text><text fill="#000000" font-family="sans-serif" font-size="11" lengthAdjust="spacing" textLength="27.5913" x="899.458" y="1228.0063">[yes]</text><text fill="#000000" font-family="sans-serif" font-size="11" lengthAdjust="spacing" textLength="22.2847" x="1053.3149" y="1228.0063">[no]</text><rect fill="#F1F1F1" height="33.9688" rx="12.5" ry="12.5" style="stroke:#181818;stroke-width:0.5;" width="99.8984" x="865.2471" y="1252.6006"/><text fill="#000000" font-family="sans-serif" font-size="12" lengthAdjust="spacing" textLength="79.8984" x="875.2471" y="1273.7393">-&gt;[Paid] next</text><rect fill="#F1F1F1" height="33.9688" rx="12.5" ry="12.5" style="stroke:#181818;stroke-width:0.5;" width="160.0449" x="985.1455" y="1252.6006"/><text fill="#000000" font-family="sans-serif" font-size="12" lengthAdjust="spacing" textLength="140.0449" x="995.1455" y="1273.7393">Show "Payment Failed"</text><rect fill="#F1F1F1" height="33.9688" rx="12.5" ry="12.5" style="stroke:#181818;stroke-width:0.5;" width="149.1699" x="990.583" y="1306.5693"/><text fill="#000000" font-family="sans-serif" font-size="12" lengthAdjust="spacing" textLength="129.1699" x="1000.583" y="1327.708">-&gt; :Process Payment;</text><polygon fill="#F1F1F1" points="990.1821,1346.5381,1002.1821,1358.5381,990.1821,1370.5381,978.1821,1358.5381,990.1821,1346.5381" style="stroke:#181818;stroke-width:0.5;"/><polygon fill="#F1F1F1" points="936.3423,1116.2295,1044.022,1116.2295,1056.022,1128.2295,1044.022,1140.2295,936.3423,1140.2295,924.3423,1128.2295,936.3423,1116.2295" style="stroke:#181818;stroke-width:0.5;"/><text fill="#000000" font-family="sans-serif" font-size="11" lengthAdjust="spacing" textLength="27.5913" x="994.1821" y="1150.4399">[yes]</text><text fill="#000000" font-family="sans-serif" font-size="11" lengthAdjust="spacing" textLength="107.6797" x="936.3423" y="1132.0376">Payment Required?</text><polygon fill="#F1F1F1" points="990.1821,1390.5381,1002.1821,1402.5381,990.1821,1414.5381,978.1821,1402.5381,990.1821,1390.5381" style="stroke:#181818;stroke-width:0.5;"/><rect fill="#F1F1F1" height="47.9375" rx="12.5" ry="12.5" style="stroke:#181818;stroke-width:0.5;" width="164.1348" x="908.1147" y="1434.5381"/><text fill="#000000" font-family="sans-serif" font-size="12" lengthAdjust="spacing" textLength="144.1348" x="918.1147" y="1455.6768">Appointment Confirmed</text><text fill="#000000" font-family="sans-serif" font-size="12" lengthAdjust="spacing" textLength="135.5918" x="918.1147" y="1469.6455">Email/SMS Notification</text><ellipse cx="990.1821" cy="1513.4756" fill="none" rx="11" ry="11" style="stroke:#222222;stroke-width:1;"/><ellipse cx="990.1821" cy="1513.4756" fill="#222222" rx="6" ry="6" style="stroke:#222222;stroke-width:1;"/><line style="stroke:#000000;stroke-width:1.5;" x1="756.2832" x2="756.2832" y1="12.7451" y2="1524.4756"/><line style="stroke:#000000;stroke-width:1.5;" x1="1310.5039" x2="1310.5039" y1="12.7451" y2="1524.4756"/><line style="stroke:#181818;stroke-width:1;" x1="388.0134" x2="388.0134" y1="58.6982" y2="78.6982"/><polygon fill="#181818" points="384.0134,68.6982,388.0134,78.6982,392.0134,68.6982,388.0134,72.6982" style="stroke:#181818;stroke-width:1;"/><line style="stroke:#181818;stroke-width:1;" x1="296.6826" x2="296.6826" y1="288.6045" y2="308.6045"/><polygon fill="#181818" points="292.6826,298.6045,296.6826,308.6045,300.6826,298.6045,296.6826,302.6045" style="stroke:#181818;stroke-width:1;"/><line style="stroke:#181818;stroke-width:1;" x1="137.1772" x2="105.1943" y1="232.6357" y2="232.6357"/><line style="stroke:#181818;stroke-width:1;" x1="105.1943" x2="105.1943" y1="232.6357" y2="254.6357"/><polygon fill="#181818" points="101.1943,244.6357,105.1943,254.6357,109.1943,244.6357,105.1943,248.6357" style="stroke:#181818;stroke-width:1;"/><line style="stroke:#181818;stroke-width:1;" x1="264.6997" x2="296.6826" y1="232.6357" y2="232.6357"/><line style="stroke:#181818;stroke-width:1;" x1="296.6826" x2="296.6826" y1="232.6357" y2="254.6357"/><polygon fill="#181818" points="292.6826,244.6357,296.6826,254.6357,300.6826,244.6357,296.6826,248.6357" style="stroke:#181818;stroke-width:1;"/><line style="stroke:#181818;stroke-width:1;" x1="105.1943" x2="105.1943" y1="288.6045" y2="360.5732"/><line style="stroke:#181818;stroke-width:1;" x1="105.1943" x2="188.9385" y1="360.5732" y2="360.5732"/><polygon fill="#181818" points="178.9385,356.5732,188.9385,360.5732,178.9385,364.5732,182.9385,360.5732" style="stroke:#181818;stroke-width:1;"/><line style="stroke:#181818;stroke-width:1;" x1="296.6826" x2="296.6826" y1="342.5732" y2="360.5732"/><line style="stroke:#181818;stroke-width:1;" x1="296.6826" x2="212.9385" y1="360.5732" y2="360.5732"/><polygon fill="#181818" points="222.9385,356.5732,212.9385,360.5732,222.9385,364.5732,218.9385,360.5732" style="stroke:#181818;stroke-width:1;"/><line style="stroke:#181818;stroke-width:1;" x1="200.9385" x2="200.9385" y1="200.6357" y2="220.6357"/><polygon fill="#181818" points="196.9385,210.6357,200.9385,220.6357,204.9385,210.6357,200.9385,214.6357" style="stroke:#181818;stroke-width:1;"/><line style="stroke:#181818;stroke-width:1;" x1="662.165" x2="662.165" y1="288.6045" y2="308.6045"/><polygon fill="#181818" points="658.165,298.6045,662.165,308.6045,666.165,298.6045,662.165,302.6045" style="stroke:#181818;stroke-width:1;"/><line style="stroke:#181818;stroke-width:1;" x1="521.3469" x2="488.0117" y1="232.6357" y2="232.6357"/><line style="stroke:#181818;stroke-width:1;" x1="488.0117" x2="488.0117" y1="232.6357" y2="254.6357"/><polygon fill="#181818" points="484.0117,244.6357,488.0117,254.6357,492.0117,244.6357,488.0117,248.6357" style="stroke:#181818;stroke-width:1;"/><line style="stroke:#181818;stroke-width:1;" x1="628.8298" x2="662.165" y1="232.6357" y2="232.6357"/><line style="stroke:#181818;stroke-width:1;" x1="662.165" x2="662.165" y1="232.6357" y2="254.6357"/><polygon fill="#181818" points="658.165,244.6357,662.165,254.6357,666.165,244.6357,662.165,248.6357" style="stroke:#181818;stroke-width:1;"/><line style="stroke:#181818;stroke-width:1;" x1="488.0117" x2="488.0117" y1="288.6045" y2="360.5732"/><line style="stroke:#181818;stroke-width:1;" x1="488.0117" x2="563.0884" y1="360.5732" y2="360.5732"/><polygon fill="#181818" points="553.0884,356.5732,563.0884,360.5732,553.0884,364.5732,557.0884,360.5732" style="stroke:#181818;stroke-width:1;"/><line style="stroke:#181818;stroke-width:1;" x1="662.165" x2="662.165" y1="342.5732" y2="360.5732"/><line style="stroke:#181818;stroke-width:1;" x1="662.165" x2="587.0884" y1="360.5732" y2="360.5732"/><polygon fill="#181818" points="597.0884,356.5732,587.0884,360.5732,597.0884,364.5732,593.0884,360.5732" style="stroke:#181818;stroke-width:1;"/><line style="stroke:#181818;stroke-width:1;" x1="575.0884" x2="575.0884" y1="200.6357" y2="220.6357"/><polygon fill="#181818" points="571.0884,210.6357,575.0884,220.6357,579.0884,210.6357,575.0884,214.6357" style="stroke:#181818;stroke-width:1;"/><line style="stroke:#181818;stroke-width:1;" x1="339.9519" x2="200.9385" y1="144.667" y2="144.667"/><line style="stroke:#181818;stroke-width:1;" x1="200.9385" x2="200.9385" y1="144.667" y2="166.667"/><polygon fill="#181818" points="196.9385,156.667,200.9385,166.667,204.9385,156.667,200.9385,160.667" style="stroke:#181818;stroke-width:1;"/><line style="stroke:#181818;stroke-width:1;" x1="436.075" x2="575.0884" y1="144.667" y2="144.667"/><line style="stroke:#181818;stroke-width:1;" x1="575.0884" x2="575.0884" y1="144.667" y2="166.667"/><polygon fill="#181818" points="571.0884,156.667,575.0884,166.667,579.0884,156.667,575.0884,160.667" style="stroke:#181818;stroke-width:1;"/><line style="stroke:#181818;stroke-width:1;" x1="200.9385" x2="200.9385" y1="372.5732" y2="390.5732"/><line style="stroke:#181818;stroke-width:1;" x1="200.9385" x2="376.0134" y1="390.5732" y2="390.5732"/><polygon fill="#181818" points="366.0134,386.5732,376.0134,390.5732,366.0134,394.5732,370.0134,390.5732" style="stroke:#181818;stroke-width:1;"/><line style="stroke:#181818;stroke-width:1;" x1="575.0884" x2="575.0884" y1="372.5732" y2="390.5732"/><line style="stroke:#181818;stroke-width:1;" x1="575.0884" x2="400.0134" y1="390.5732" y2="390.5732"/><polygon fill="#181818" points="410.0134,386.5732,400.0134,390.5732,410.0134,394.5732,406.0134,390.5732" style="stroke:#181818;stroke-width:1;"/><line style="stroke:#181818;stroke-width:1;" x1="388.0134" x2="388.0134" y1="112.667" y2="132.667"/><polygon fill="#181818" points="384.0134,122.667,388.0134,132.667,392.0134,122.667,388.0134,126.667" style="stroke:#181818;stroke-width:1;"/><line style="stroke:#181818;stroke-width:1;" x1="903.6362" x2="903.6362" y1="482.542" y2="502.542"/><polygon fill="#181818" points="899.6362,492.542,903.6362,502.542,907.6362,492.542,903.6362,496.542" style="stroke:#181818;stroke-width:1;"/><line style="stroke:#181818;stroke-width:1;" x1="1063.1196" x2="1063.1196" y1="482.542" y2="502.542"/><polygon fill="#181818" points="1059.1196,492.542,1063.1196,502.542,1067.1196,492.542,1063.1196,496.542" style="stroke:#181818;stroke-width:1;"/><line style="stroke:#181818;stroke-width:1;" x1="903.6362" x2="903.6362" y1="536.5107" y2="556.5107"/><polygon fill="#181818" points="899.6362,546.5107,903.6362,556.5107,907.6362,546.5107,903.6362,550.5107" style="stroke:#181818;stroke-width:1;"/><line style="stroke:#181818;stroke-width:1;" x1="1063.1196" x2="1063.1196" y1="536.5107" y2="556.5107"/><polygon fill="#181818" points="1059.1196,546.5107,1063.1196,556.5107,1067.1196,546.5107,1063.1196,550.5107" style="stroke:#181818;stroke-width:1;"/><line style="stroke:#181818;stroke-width:1;" x1="990.1821" x2="990.1821" y1="456.542" y2="476.542"/><polygon fill="#181818" points="986.1821,466.542,990.1821,476.542,994.1821,466.542,990.1821,470.542" style="stroke:#181818;stroke-width:1;"/><line style="stroke:#181818;stroke-width:1;" x1="990.1821" x2="990.1821" y1="562.5107" y2="582.5107"/><polygon fill="#181818" points="986.1821,572.5107,990.1821,582.5107,994.1821,572.5107,990.1821,576.5107" style="stroke:#181818;stroke-width:1;"/><line style="stroke:#181818;stroke-width:1;" x1="1124.8809" x2="1124.8809" y1="772.3857" y2="792.3857"/><polygon fill="#181818" points="1120.8809,782.3857,1124.8809,792.3857,1128.8809,782.3857,1124.8809,786.3857" style="stroke:#181818;stroke-width:1;"/><line style="stroke:#181818;stroke-width:1;" x1="1211.8359" x2="1211.8359" y1="914.3232" y2="934.3232"/><polygon fill="#181818" points="1207.8359,924.3232,1211.8359,934.3232,1215.8359,924.3232,1211.8359,928.3232" style="stroke:#181818;stroke-width:1;"/><line style="stroke:#181818;stroke-width:1;" x1="1072.4553" x2="1037.9258" y1="858.3545" y2="858.3545"/><line style="stroke:#181818;stroke-width:1;" x1="1037.9258" x2="1037.9258" y1="858.3545" y2="880.3545"/><polygon fill="#181818" points="1033.9258,870.3545,1037.9258,880.3545,1041.9258,870.3545,1037.9258,874.3545" style="stroke:#181818;stroke-width:1;"/><line style="stroke:#181818;stroke-width:1;" x1="1177.3064" x2="1211.8359" y1="858.3545" y2="858.3545"/><line style="stroke:#181818;stroke-width:1;" x1="1211.8359" x2="1211.8359" y1="858.3545" y2="880.3545"/><polygon fill="#181818" points="1207.8359,870.3545,1211.8359,880.3545,1215.8359,870.3545,1211.8359,874.3545" style="stroke:#181818;stroke-width:1;"/><line style="stroke:#181818;stroke-width:1;" x1="1037.9258" x2="1037.9258" y1="914.3232" y2="986.292"/><line style="stroke:#181818;stroke-width:1;" x1="1037.9258" x2="1112.8809" y1="986.292" y2="986.292"/><polygon fill="#181818" points="1102.8809,982.292,1112.8809,986.292,1102.8809,990.292,1106.8809,986.292" style="stroke:#181818;stroke-width:1;"/><line style="stroke:#181818;stroke-width:1;" x1="1211.8359" x2="1211.8359" y1="968.292" y2="986.292"/><line style="stroke:#181818;stroke-width:1;" x1="1211.8359" x2="1136.8809" y1="986.292" y2="986.292"/><polygon fill="#181818" points="1146.8809,982.292,1136.8809,986.292,1146.8809,990.292,1142.8809,986.292" style="stroke:#181818;stroke-width:1;"/><line style="stroke:#181818;stroke-width:1;" x1="1124.8809" x2="1124.8809" y1="826.3545" y2="846.3545"/><polygon fill="#181818" points="1120.8809,836.3545,1124.8809,846.3545,1128.8809,836.3545,1124.8809,840.3545" style="stroke:#181818;stroke-width:1;"/><line style="stroke:#181818;stroke-width:1;" x1="956.4587" x2="855.4834" y1="716.417" y2="716.417"/><line style="stroke:#181818;stroke-width:1;" x1="855.4834" x2="855.4834" y1="716.417" y2="738.417"/><polygon fill="#181818" points="851.4834,728.417,855.4834,738.417,859.4834,728.417,855.4834,732.417" style="stroke:#181818;stroke-width:1;"/><line style="stroke:#181818;stroke-width:1;" x1="1023.9055" x2="1124.8809" y1="716.417" y2="716.417"/><line style="stroke:#181818;stroke-width:1;" x1="1124.8809" x2="1124.8809" y1="716.417" y2="738.417"/><polygon fill="#181818" points="1120.8809,728.417,1124.8809,738.417,1128.8809,728.417,1124.8809,732.417" style="stroke:#181818;stroke-width:1;"/><line style="stroke:#181818;stroke-width:1;" x1="855.4834" x2="855.4834" y1="772.3857" y2="1016.292"/><line style="stroke:#181818;stroke-width:1;" x1="855.4834" x2="978.1821" y1="1016.292" y2="1016.292"/><polygon fill="#181818" points="968.1821,1012.292,978.1821,1016.292,968.1821,1020.292,972.1821,1016.292" style="stroke:#181818;stroke-width:1;"/><line style="stroke:#181818;stroke-width:1;" x1="1124.8809" x2="1124.8809" y1="998.292" y2="1016.292"/><line style="stroke:#181818;stroke-width:1;" x1="1124.8809" x2="1002.1821" y1="1016.292" y2="1016.292"/><polygon fill="#181818" points="1012.1821,1012.292,1002.1821,1016.292,1012.1821,1020.292,1008.1821,1016.292" style="stroke:#181818;stroke-width:1;"/><line style="stroke:#181818;stroke-width:1;" x1="990.1821" x2="990.1821" y1="1028.292" y2="1048.292"/><polygon fill="#181818" points="986.1821,1038.292,990.1821,1048.292,994.1821,1038.292,990.1821,1042.292" style="stroke:#181818;stroke-width:1;"/><line style="stroke:#181818;stroke-width:1;" x1="1065.168" x2="1065.168" y1="1286.5693" y2="1306.5693"/><polygon fill="#181818" points="1061.168,1296.5693,1065.168,1306.5693,1069.168,1296.5693,1065.168,1300.5693" style="stroke:#181818;stroke-width:1;"/><line style="stroke:#181818;stroke-width:1;" x1="927.0493" x2="915.1963" y1="1230.6006" y2="1230.6006"/><line style="stroke:#181818;stroke-width:1;" x1="915.1963" x2="915.1963" y1="1230.6006" y2="1252.6006"/><polygon fill="#181818" points="911.1963,1242.6006,915.1963,1252.6006,919.1963,1242.6006,915.1963,1246.6006" style="stroke:#181818;stroke-width:1;"/><line style="stroke:#181818;stroke-width:1;" x1="1053.3149" x2="1065.168" y1="1230.6006" y2="1230.6006"/><line style="stroke:#181818;stroke-width:1;" x1="1065.168" x2="1065.168" y1="1230.6006" y2="1252.6006"/><polygon fill="#181818" points="1061.168,1242.6006,1065.168,1252.6006,1069.168,1242.6006,1065.168,1246.6006" style="stroke:#181818;stroke-width:1;"/><line style="stroke:#181818;stroke-width:1;" x1="915.1963" x2="915.1963" y1="1286.5693" y2="1358.5381"/><line style="stroke:#181818;stroke-width:1;" x1="915.1963" x2="978.1821" y1="1358.5381" y2="1358.5381"/><polygon fill="#181818" points="968.1821,1354.5381,978.1821,1358.5381,968.1821,1362.5381,972.1821,1358.5381" style="stroke:#181818;stroke-width:1;"/><line style="stroke:#181818;stroke-width:1;" x1="1065.168" x2="1065.168" y1="1340.5381" y2="1358.5381"/><line style="stroke:#181818;stroke-width:1;" x1="1065.168" x2="1002.1821" y1="1358.5381" y2="1358.5381"/><polygon fill="#181818" points="1012.1821,1354.5381,1002.1821,1358.5381,1012.1821,1362.5381,1008.1821,1358.5381" style="stroke:#181818;stroke-width:1;"/><line style="stroke:#181818;stroke-width:1;" x1="990.1821" x2="990.1821" y1="1198.6006" y2="1218.6006"/><polygon fill="#181818" points="986.1821,1208.6006,990.1821,1218.6006,994.1821,1208.6006,990.1821,1212.6006" style="stroke:#181818;stroke-width:1;"/><line style="stroke:#181818;stroke-width:1;" x1="990.1821" x2="990.1821" y1="1140.2295" y2="1164.6318"/><polygon fill="#181818" points="986.1821,1154.6318,990.1821,1164.6318,994.1821,1154.6318,990.1821,1158.6318" style="stroke:#181818;stroke-width:1;"/><line style="stroke:#181818;stroke-width:1;" x1="1056.022" x2="1165.1904" y1="1128.2295" y2="1128.2295"/><polygon fill="#181818" points="1161.1904,1257.585,1165.1904,1267.585,1169.1904,1257.585,1165.1904,1261.585" style="stroke:#181818;stroke-width:1;"/><line style="stroke:#181818;stroke-width:1;" x1="1165.1904" x2="1165.1904" y1="1128.2295" y2="1402.5381"/><line style="stroke:#181818;stroke-width:1;" x1="1165.1904" x2="1002.1821" y1="1402.5381" y2="1402.5381"/><polygon fill="#181818" points="1012.1821,1398.5381,1002.1821,1402.5381,1012.1821,1406.5381,1008.1821,1402.5381" style="stroke:#181818;stroke-width:1;"/><line style="stroke:#181818;stroke-width:1;" x1="990.1821" x2="990.1821" y1="1370.5381" y2="1390.5381"/><polygon fill="#181818" points="986.1821,1380.5381,990.1821,1390.5381,994.1821,1380.5381,990.1821,1384.5381" style="stroke:#181818;stroke-width:1;"/><line style="stroke:#181818;stroke-width:1;" x1="990.1821" x2="990.1821" y1="1096.2295" y2="1116.2295"/><polygon fill="#181818" points="986.1821,1106.2295,990.1821,1116.2295,994.1821,1106.2295,990.1821,1110.2295" style="stroke:#181818;stroke-width:1;"/><line style="stroke:#181818;stroke-width:1;" x1="990.1821" x2="990.1821" y1="1414.5381" y2="1434.5381"/><polygon fill="#181818" points="986.1821,1424.5381,990.1821,1434.5381,994.1821,1424.5381,990.1821,1428.5381" style="stroke:#181818;stroke-width:1;"/><line style="stroke:#181818;stroke-width:1;" x1="990.1821" x2="990.1821" y1="1482.4756" y2="1502.4756"/><polygon fill="#181818" points="986.1821,1492.4756,990.1821,1502.4756,994.1821,1492.4756,990.1821,1496.4756" style="stroke:#181818;stroke-width:1;"/><line style="stroke:#181818;stroke-width:1;" x1="388.0134" x2="388.0134" y1="402.5732" y2="407.5732"/><line style="stroke:#181818;stroke-width:1;" x1="388.0134" x2="990.1821" y1="407.5732" y2="407.5732"/><line style="stroke:#181818;stroke-width:1;" x1="990.1821" x2="990.1821" y1="407.5732" y2="422.5732"/><polygon fill="#181818" points="986.1821,412.5732,990.1821,422.5732,994.1821,412.5732,990.1821,416.5732" style="stroke:#181818;stroke-width:1;"/><line style="stroke:#181818;stroke-width:1;" x1="990.1821" x2="990.1821" y1="616.4795" y2="621.4795"/><line style="stroke:#181818;stroke-width:1;" x1="990.1821" x2="388.0134" y1="621.4795" y2="621.4795"/><line style="stroke:#181818;stroke-width:1;" x1="388.0134" x2="388.0134" y1="621.4795" y2="636.4795"/><polygon fill="#181818" points="384.0134,626.4795,388.0134,636.4795,392.0134,626.4795,388.0134,630.4795" style="stroke:#181818;stroke-width:1;"/><line style="stroke:#181818;stroke-width:1;" x1="388.0134" x2="388.0134" y1="684.417" y2="689.417"/><line style="stroke:#181818;stroke-width:1;" x1="388.0134" x2="990.1821" y1="689.417" y2="689.417"/><line style="stroke:#181818;stroke-width:1;" x1="990.1821" x2="990.1821" y1="689.417" y2="704.417"/><polygon fill="#181818" points="986.1821,694.417,990.1821,704.417,994.1821,694.417,990.1821,698.417" style="stroke:#181818;stroke-width:1;"/><text fill="#000000" font-family="sans-serif" font-size="18" lengthAdjust="spacing" textLength="63.4834" x="353.8999" y="29.4531">Patient</text><text fill="#000000" font-family="sans-serif" font-size="18" lengthAdjust="spacing" textLength="67.1221" x="999.8325" y="29.4531">System</text><!--SRC=[XLDDJ-D03BtFhx0u87gek2SIg2AjX7QtL8JbWZWCYTDOEva9CsvBfFpudNn1ijlIInJ5py_l-JdrHZAXvbeubfP5iDICra5SESOY588ok5hZ0NhSxGmuHmrNBnMwrva025Qa53pYbXnR3p8QLiRwLe2cTr9ubehI_oa0vlERbmdouSShQFnWNqNbq8ErwR51d9i3N4pWIskDlGW7hkz4eKuf4rFIuAVPaeO3SGvt5bDlbAHoWuUk6k-I19qx9Ry3dTTzh_VD5iPpni9FA-c5jqzHTm7LecEDfClVZBHfA39Z_pIMdj5ILi6zTZihTO9T1UHMacvZGqvoMEmbAVcc469bsC_n_D1I116vKiaA5cLfI7FXfS13sUpImqJzUJX1Z0eJdk2UgX95a_rEINlzssxznrauajsijVjyvA8MIfb4CiBQRt8-bHZ-6rq_FSBItsyx_18Yax2nuRZSq5t24nK3JHTjy_wrX5FPjgZpqQvDjyKlmd6otoYPH1kC5_c8UyA3Y90ze_DzTqPdP8lsfllVSoEh7lk-8typHpQwiQQvNUYXW_kXyynfRoIbvxmFL2kl4zEnxoEpJ_ljxM4gbeLdkev_nR0sJ1ablMN7flmB]--></g></svg>